<svg width="140" height="28" viewBox="0 0 140 28" fill="none" xmlns="http://www.w3.org/2000/svg">
<path d="M9.248 10.08C8.96 9.52533 8.56 9.10933 8.048 8.832C7.536 8.544 6.944 8.4 6.272 8.4C5.536 8.4 4.88 8.56533 4.304 8.896C3.728 9.22667 3.27467 9.696 2.944 10.304C2.624 10.912 2.464 11.616 2.464 12.416C2.464 13.216 2.624 13.9253 2.944 14.544C3.27467 15.152 3.728 15.6213 4.304 15.952C4.88 16.2827 5.536 16.448 6.272 16.448C7.264 16.448 8.06933 16.1707 8.688 15.616C9.30667 15.0613 9.68533 14.3093 9.824 13.36H5.648V11.904H11.776V13.328C11.6587 14.192 11.3493 14.9867 10.848 15.712C10.3573 16.4373 9.712 17.0187 8.912 17.456C8.12267 17.8827 7.24267 18.096 6.272 18.096C5.22667 18.096 4.272 17.856 3.408 17.376C2.544 16.8853 1.856 16.208 1.344 15.344C0.842667 14.48 0.592 13.504 0.592 12.416C0.592 11.328 0.842667 10.352 1.344 9.488C1.856 8.624 2.544 7.952 3.408 7.472C4.28267 6.98133 5.23733 6.736 6.272 6.736C7.456 6.736 8.50667 7.02933 9.424 7.616C10.352 8.192 11.024 9.01333 11.44 10.08H9.248ZM14.503 8.016C14.1723 8.016 13.895 7.904 13.671 7.68C13.447 7.456 13.335 7.17867 13.335 6.848C13.335 6.51733 13.447 6.24 13.671 6.016C13.895 5.792 14.1723 5.68 14.503 5.68C14.823 5.68 15.095 5.792 15.319 6.016C15.543 6.24 15.655 6.51733 15.655 6.848C15.655 7.17867 15.543 7.456 15.319 7.68C15.095 7.904 14.823 8.016 14.503 8.016ZM15.399 9.184V18H13.575V9.184H15.399ZM19.9218 10.672V15.552C19.9218 15.8827 19.9964 16.1227 20.1458 16.272C20.3058 16.4107 20.5724 16.48 20.9458 16.48H22.0658V18H20.6258C19.8044 18 19.1751 17.808 18.7378 17.424C18.3004 17.04 18.0818 16.416 18.0818 15.552V10.672H17.0418V9.184H18.0818V6.992H19.9218V9.184H22.0658V10.672H19.9218ZM32.6269 6.88V18H30.8029V13.136H25.5709V18H23.7469V6.88H25.5709V11.648H30.8029V6.88H32.6269ZM43.0121 9.184V18H41.1881V16.96C40.9001 17.3227 40.5215 17.6107 40.0521 17.824C39.5935 18.0267 39.1028 18.128 38.5801 18.128C37.8868 18.128 37.2628 17.984 36.7081 17.696C36.1641 17.408 35.7321 16.9813 35.4121 16.416C35.1028 15.8507 34.9481 15.168 34.9481 14.368V9.184H36.7561V14.096C36.7561 14.8853 36.9535 15.4933 37.3481 15.92C37.7428 16.336 38.2815 16.544 38.9641 16.544C39.6468 16.544 40.1855 16.336 40.5801 15.92C40.9855 15.4933 41.1881 14.8853 41.1881 14.096V9.184H43.0121ZM47.2428 10.496C47.5521 10.0693 47.9734 9.72267 48.5068 9.456C49.0508 9.17867 49.6534 9.04 50.3148 9.04C51.0934 9.04 51.7974 9.22667 52.4268 9.6C53.0561 9.97333 53.5521 10.5067 53.9148 11.2C54.2774 11.8827 54.4588 12.6667 54.4588 13.552C54.4588 14.4373 54.2774 15.232 53.9148 15.936C53.5521 16.6293 53.0508 17.1733 52.4108 17.568C51.7814 17.952 51.0828 18.144 50.3148 18.144C49.6321 18.144 49.0241 18.0107 48.4908 17.744C47.9681 17.4773 47.5521 17.136 47.2428 16.72V18H45.4188V6.16H47.2428V10.496ZM52.6028 13.552C52.6028 12.944 52.4748 12.4213 52.2188 11.984C51.9734 11.536 51.6428 11.2 51.2268 10.976C50.8214 10.7413 50.3841 10.624 49.9148 10.624C49.4561 10.624 49.0188 10.7413 48.6028 10.976C48.1974 11.2107 47.8668 11.552 47.6108 12C47.3654 12.448 47.2428 12.976 47.2428 13.584C47.2428 14.192 47.3654 14.7253 47.6108 15.184C47.8668 15.632 48.1974 15.9733 48.6028 16.208C49.0188 16.4427 49.4561 16.56 49.9148 16.56C50.3841 16.56 50.8214 16.4427 51.2268 16.208C51.6428 15.9627 51.9734 15.6107 52.2188 15.152C52.4748 14.6933 52.6028 14.16 52.6028 13.552ZM64.0828 18.112C63.3361 18.112 62.6641 17.984 62.0668 17.728C61.4694 17.4613 61.0001 17.088 60.6588 16.608C60.3174 16.128 60.1468 15.568 60.1468 14.928H62.0988C62.1414 15.408 62.3281 15.8027 62.6588 16.112C63.0001 16.4213 63.4748 16.576 64.0828 16.576C64.7121 16.576 65.2028 16.4267 65.5548 16.128C65.9068 15.8187 66.0828 15.424 66.0828 14.944C66.0828 14.5707 65.9708 14.2667 65.7468 14.032C65.5334 13.7973 65.2614 13.616 64.9308 13.488C64.6108 13.36 64.1628 13.2213 63.5868 13.072C62.8614 12.88 62.2694 12.688 61.8108 12.496C61.3628 12.2933 60.9788 11.984 60.6588 11.568C60.3388 11.152 60.1788 10.5973 60.1788 9.904C60.1788 9.264 60.3388 8.704 60.6588 8.224C60.9788 7.744 61.4268 7.376 62.0028 7.12C62.5788 6.864 63.2454 6.736 64.0028 6.736C65.0801 6.736 65.9601 7.008 66.6428 7.552C67.3361 8.08533 67.7201 8.82133 67.7948 9.76H65.7788C65.7468 9.35467 65.5548 9.008 65.2028 8.72C64.8508 8.432 64.3868 8.288 63.8108 8.288C63.2881 8.288 62.8614 8.42133 62.5308 8.688C62.2001 8.95467 62.0348 9.33867 62.0348 9.84C62.0348 10.1813 62.1361 10.464 62.3388 10.688C62.5521 10.9013 62.8188 11.072 63.1388 11.2C63.4588 11.328 63.8961 11.4667 64.4508 11.616C65.1868 11.8187 65.7841 12.0213 66.2428 12.224C66.7121 12.4267 67.1068 12.7413 67.4268 13.168C67.7574 13.584 67.9228 14.144 67.9228 14.848C67.9228 15.4133 67.7681 15.9467 67.4588 16.448C67.1601 16.9493 66.7174 17.3547 66.1308 17.664C65.5548 17.9627 64.8721 18.112 64.0828 18.112ZM73.899 18.144C73.067 18.144 72.315 17.9573 71.643 17.584C70.971 17.2 70.443 16.6667 70.059 15.984C69.675 15.2907 69.483 14.4907 69.483 13.584C69.483 12.688 69.6803 11.8933 70.075 11.2C70.4697 10.5067 71.0083 9.97333 71.691 9.6C72.3737 9.22667 73.1363 9.04 73.979 9.04C74.8217 9.04 75.5843 9.22667 76.267 9.6C76.9497 9.97333 77.4883 10.5067 77.883 11.2C78.2777 11.8933 78.475 12.688 78.475 13.584C78.475 14.48 78.2723 15.2747 77.867 15.968C77.4617 16.6613 76.907 17.2 76.203 17.584C75.5097 17.9573 74.7417 18.144 73.899 18.144ZM73.899 16.56C74.3683 16.56 74.8057 16.448 75.211 16.224C75.627 16 75.963 15.664 76.219 15.216C76.475 14.768 76.603 14.224 76.603 13.584C76.603 12.944 76.4803 12.4053 76.235 11.968C75.9897 11.52 75.6643 11.184 75.259 10.96C74.8537 10.736 74.4163 10.624 73.947 10.624C73.4777 10.624 73.0403 10.736 72.635 10.96C72.2403 11.184 71.9257 11.52 71.691 11.968C71.4563 12.4053 71.339 12.944 71.339 13.584C71.339 14.5333 71.579 15.2693 72.059 15.792C72.5497 16.304 73.163 16.56 73.899 16.56ZM88.2621 9.184V18H86.4381V16.96C86.1501 17.3227 85.7715 17.6107 85.3021 17.824C84.8435 18.0267 84.3528 18.128 83.8301 18.128C83.1368 18.128 82.5128 17.984 81.9581 17.696C81.4141 17.408 80.9821 16.9813 80.6621 16.416C80.3528 15.8507 80.1981 15.168 80.1981 14.368V9.184H82.0061V14.096C82.0061 14.8853 82.2035 15.4933 82.5981 15.92C82.9928 16.336 83.5315 16.544 84.2141 16.544C84.8968 16.544 85.4355 16.336 85.8301 15.92C86.2355 15.4933 86.4381 14.8853 86.4381 14.096V9.184H88.2621ZM92.4928 10.464C92.7594 10.016 93.1114 9.66933 93.5488 9.424C93.9968 9.168 94.5248 9.04 95.1328 9.04V10.928H94.6688C93.9541 10.928 93.4101 11.1093 93.0368 11.472C92.6741 11.8347 92.4928 12.464 92.4928 13.36V18H90.6688V9.184H92.4928V10.464ZM96.2014 13.584C96.2014 12.6773 96.3827 11.8827 96.7454 11.2C97.1187 10.5067 97.6307 9.97333 98.2814 9.6C98.932 9.22667 99.6787 9.04 100.521 9.04C101.588 9.04 102.468 9.296 103.161 9.808C103.865 10.3093 104.34 11.0293 104.585 11.968H102.617C102.457 11.5307 102.201 11.1893 101.849 10.944C101.497 10.6987 101.055 10.576 100.521 10.576C99.7747 10.576 99.1774 10.8427 98.7294 11.376C98.292 11.8987 98.0734 12.6347 98.0734 13.584C98.0734 14.5333 98.292 15.2747 98.7294 15.808C99.1774 16.3413 99.7747 16.608 100.521 16.608C101.577 16.608 102.276 16.144 102.617 15.216H104.585C104.329 16.112 103.849 16.8267 103.145 17.36C102.441 17.8827 101.567 18.144 100.521 18.144C99.6787 18.144 98.932 17.9573 98.2814 17.584C97.6307 17.2 97.1187 16.6667 96.7454 15.984C96.3827 15.2907 96.2014 14.4907 96.2014 13.584ZM114.483 13.376C114.483 13.7067 114.462 14.0053 114.419 14.272H107.683C107.736 14.976 107.998 15.5413 108.467 15.968C108.936 16.3947 109.512 16.608 110.195 16.608C111.176 16.608 111.87 16.1973 112.275 15.376H114.243C113.976 16.1867 113.491 16.8533 112.787 17.376C112.094 17.888 111.23 18.144 110.195 18.144C109.352 18.144 108.595 17.9573 107.923 17.584C107.262 17.2 106.739 16.6667 106.355 15.984C105.982 15.2907 105.795 14.4907 105.795 13.584C105.795 12.6773 105.976 11.8827 106.339 11.2C106.712 10.5067 107.23 9.97333 107.891 9.6C108.563 9.22667 109.331 9.04 110.195 9.04C111.027 9.04 111.768 9.22133 112.419 9.584C113.07 9.94667 113.576 10.4587 113.939 11.12C114.302 11.7707 114.483 12.5227 114.483 13.376ZM112.579 12.8C112.568 12.128 112.328 11.5893 111.859 11.184C111.39 10.7787 110.808 10.576 110.115 10.576C109.486 10.576 108.947 10.7787 108.499 11.184C108.051 11.5787 107.784 12.1173 107.699 12.8H112.579Z" fill="#393242"/>
<path fill-rule="evenodd" clip-rule="evenodd" d="M131.503 6.53263L130.914 5.94338L129.735 7.12189L130.324 7.71114L133.952 11.3392L124.179 11.3392L123.346 11.3392L123.346 13.0059L124.179 13.0059L133.953 13.0059L130.324 16.6342L129.735 17.2234L130.914 18.4019L131.503 17.8127L136.554 12.7619L137.143 12.1726L136.554 11.5834L131.503 6.53263Z" fill="#393242"/>
</svg>
