<svg width="136" height="25" viewBox="0 0 136 25" fill="none" xmlns="http://www.w3.org/2000/svg">
<circle cx="12" cy="12.5" r="12" fill="black"/>
<circle cx="12" cy="12.5" r="7" stroke="white" stroke-width="2" stroke-linecap="round" stroke-linejoin="round" stroke-dasharray="14 20"/>
<path d="M33.44 20V5.94H35.36L41.06 15.06H39.96L45.64 5.94H47.56V20H44.86V10.6L45.38 10.76L41.42 17.12H39.58L35.62 10.76L36.16 10.6V20H33.44ZM53.1922 20.08L49.1522 10.34H51.9922L54.6722 17.78H53.7122L56.4922 10.34H59.3522L55.0522 20.06L53.1922 20.08ZM50.5122 24.04L53.4522 17.82L55.0522 20.06L53.2922 24.04H50.5122ZM60.9595 20V5.94H62.8795L68.5795 15.06H67.4795L73.1595 5.94H75.0795V20H72.3795V10.6L72.8995 10.76L68.9395 17.12H67.0995L63.1395 10.76L63.6795 10.6V20H60.9595ZM81.7117 20.2C80.8317 20.2 80.0384 19.98 79.3317 19.54C78.6251 19.1 78.0717 18.5 77.6717 17.74C77.2717 16.98 77.0717 16.1267 77.0717 15.18C77.0717 14.22 77.2717 13.36 77.6717 12.6C78.0717 11.84 78.6251 11.24 79.3317 10.8C80.0384 10.36 80.8317 10.14 81.7117 10.14C82.4051 10.14 83.0251 10.28 83.5717 10.56C84.1184 10.84 84.5517 11.2333 84.8717 11.74C85.2051 12.2333 85.3851 12.7933 85.4117 13.42V16.9C85.3851 17.54 85.2051 18.1067 84.8717 18.6C84.5517 19.0933 84.1184 19.4867 83.5717 19.78C83.0251 20.06 82.4051 20.2 81.7117 20.2ZM82.1917 17.78C82.9251 17.78 83.5184 17.54 83.9717 17.06C84.4251 16.5667 84.6517 15.9333 84.6517 15.16C84.6517 14.6533 84.5451 14.2067 84.3317 13.82C84.1317 13.42 83.8451 13.1133 83.4717 12.9C83.1117 12.6733 82.6851 12.56 82.1917 12.56C81.7117 12.56 81.2851 12.6733 80.9117 12.9C80.5517 13.1133 80.2651 13.42 80.0517 13.82C79.8517 14.2067 79.7517 14.6533 79.7517 15.16C79.7517 15.68 79.8517 16.14 80.0517 16.54C80.2651 16.9267 80.5517 17.2333 80.9117 17.46C81.2851 17.6733 81.7117 17.78 82.1917 17.78ZM84.5117 20V17.4L84.9317 15.04L84.5117 12.72V10.34H87.1117V20H84.5117ZM94.0495 20.2C93.0362 20.2 92.1362 19.9867 91.3495 19.56C90.5629 19.12 89.9362 18.52 89.4695 17.76C89.0162 17 88.7895 16.1333 88.7895 15.16C88.7895 14.2 89.0095 13.3467 89.4495 12.6C89.9029 11.84 90.5162 11.24 91.2895 10.8C92.0629 10.3467 92.9229 10.12 93.8695 10.12C94.8029 10.12 95.6229 10.3333 96.3295 10.76C97.0495 11.1733 97.6095 11.7467 98.0095 12.48C98.4229 13.2 98.6295 14.02 98.6295 14.94C98.6295 15.1133 98.6162 15.2933 98.5895 15.48C98.5762 15.6533 98.5429 15.8533 98.4895 16.08L90.3695 16.1V14.14L97.2695 14.12L96.2095 14.94C96.1829 14.3667 96.0762 13.8867 95.8895 13.5C95.7162 13.1133 95.4562 12.82 95.1095 12.62C94.7762 12.4067 94.3629 12.3 93.8695 12.3C93.3495 12.3 92.8962 12.42 92.5095 12.66C92.1229 12.8867 91.8229 13.2133 91.6095 13.64C91.4095 14.0533 91.3095 14.5467 91.3095 15.12C91.3095 15.7067 91.4162 16.22 91.6295 16.66C91.8562 17.0867 92.1762 17.42 92.5895 17.66C93.0029 17.8867 93.4829 18 94.0295 18C94.5229 18 94.9695 17.92 95.3695 17.76C95.7695 17.5867 96.1162 17.3333 96.4095 17L97.9495 18.54C97.4829 19.0867 96.9095 19.5 96.2295 19.78C95.5629 20.06 94.8362 20.2 94.0495 20.2ZM103.57 20.22C103.023 20.22 102.483 20.1467 101.95 20C101.43 19.8533 100.95 19.6533 100.51 19.4C100.07 19.1333 99.6898 18.8133 99.3698 18.44L100.93 16.86C101.263 17.2333 101.65 17.5133 102.09 17.7C102.53 17.8867 103.017 17.98 103.55 17.98C103.977 17.98 104.297 17.92 104.51 17.8C104.737 17.68 104.85 17.5 104.85 17.26C104.85 16.9933 104.73 16.7867 104.49 16.64C104.263 16.4933 103.963 16.3733 103.59 16.28C103.217 16.1733 102.823 16.06 102.41 15.94C102.01 15.8067 101.623 15.64 101.25 15.44C100.877 15.2267 100.57 14.94 100.33 14.58C100.103 14.2067 99.9898 13.7267 99.9898 13.14C99.9898 12.5267 100.137 11.9933 100.43 11.54C100.737 11.0867 101.17 10.7333 101.73 10.48C102.29 10.2267 102.95 10.1 103.71 10.1C104.51 10.1 105.23 10.24 105.87 10.52C106.523 10.8 107.063 11.22 107.49 11.78L105.91 13.36C105.617 13 105.283 12.74 104.91 12.58C104.55 12.42 104.157 12.34 103.73 12.34C103.343 12.34 103.043 12.4 102.83 12.52C102.63 12.64 102.53 12.8067 102.53 13.02C102.53 13.26 102.643 13.4467 102.87 13.58C103.11 13.7133 103.417 13.8333 103.79 13.94C104.163 14.0333 104.55 14.1467 104.95 14.28C105.363 14.4 105.75 14.5733 106.11 14.8C106.483 15.0267 106.783 15.3267 107.01 15.7C107.25 16.0733 107.37 16.5533 107.37 17.14C107.37 18.0867 107.03 18.84 106.35 19.4C105.67 19.9467 104.743 20.22 103.57 20.22ZM110.557 20V6.32H113.177V20H110.557ZM108.297 12.64V10.34H115.437V12.64H108.297ZM116.91 20V10.34H119.53V20H116.91ZM119.53 14.66L118.51 13.98C118.63 12.7933 118.977 11.86 119.55 11.18C120.123 10.4867 120.95 10.14 122.03 10.14C122.497 10.14 122.917 10.22 123.29 10.38C123.663 10.5267 124.003 10.7733 124.31 11.12L122.67 13C122.523 12.84 122.343 12.72 122.13 12.64C121.93 12.56 121.697 12.52 121.43 12.52C120.87 12.52 120.41 12.7 120.05 13.06C119.703 13.4067 119.53 13.94 119.53 14.66ZM129.497 20.2C128.524 20.2 127.644 19.98 126.857 19.54C126.084 19.0867 125.464 18.48 124.997 17.72C124.544 16.9467 124.317 16.0867 124.317 15.14C124.317 14.1933 124.544 13.3467 124.997 12.6C125.45 11.84 126.07 11.24 126.857 10.8C127.644 10.3467 128.517 10.12 129.477 10.12C130.464 10.12 131.344 10.3467 132.117 10.8C132.904 11.24 133.524 11.84 133.977 12.6C134.43 13.3467 134.657 14.1933 134.657 15.14C134.657 16.0867 134.43 16.9467 133.977 17.72C133.524 18.48 132.904 19.0867 132.117 19.54C131.344 19.98 130.47 20.2 129.497 20.2ZM129.477 17.76C129.97 17.76 130.404 17.6533 130.777 17.44C131.164 17.2133 131.457 16.9067 131.657 16.52C131.87 16.12 131.977 15.6667 131.977 15.16C131.977 14.6533 131.87 14.2067 131.657 13.82C131.444 13.4333 131.15 13.1333 130.777 12.92C130.404 12.6933 129.97 12.58 129.477 12.58C128.997 12.58 128.57 12.6933 128.197 12.92C127.824 13.1333 127.53 13.4333 127.317 13.82C127.104 14.2067 126.997 14.6533 126.997 15.16C126.997 15.6667 127.104 16.12 127.317 16.52C127.53 16.9067 127.824 17.2133 128.197 17.44C128.57 17.6533 128.997 17.76 129.477 17.76Z" fill="#080014"/>
</svg>
