<?xml version="1.0" encoding="UTF-8"?>
<svg id="Layer_1" xmlns="http://www.w3.org/2000/svg" version="1.1" xmlns:xlink="http://www.w3.org/1999/xlink" viewBox="0 0 967 99.8">
  <!-- Generator: Adobe Illustrator 29.3.1, SVG Export Plug-In . SVG Version: 2.1.0 Build 151)  -->
  <defs>
    <style>
      .st0 {
        isolation: isolate;
      }
    </style>
  </defs>
  <g id="Layer_1_xA0_Image">
    <image id="Layer_1_xA0_Image-2" class="st0" width="127" height="129" transform="translate(.4 1.5) scale(.8)" xlink:href="logo-BN2NaUq1-1.png"/>
  </g>
  <g>
    <path d="M148.5,79.4l-18.2-56.2h10.9l13.5,43.3h-3.7l13.2-43.3h8.2l13.2,43.3h-3.6l13.5-43.3h10.7l-18.2,56.2h-8.2l-13.3-43.2h3.5l-13.3,43.2h-8.2Z"/>
    <path d="M225.4,80.3c-3.9,0-7.4-.9-10.5-2.7-3.1-1.8-5.6-4.2-7.4-7.3-1.8-3.1-2.7-6.5-2.7-10.4s.9-7.2,2.7-10.2c1.8-3,4.3-5.4,7.4-7.2,3.1-1.8,6.6-2.7,10.5-2.7s7.5.9,10.6,2.6c3.1,1.8,5.6,4.2,7.4,7.2,1.8,3,2.8,6.5,2.8,10.2s-.9,7.2-2.7,10.3c-1.8,3.1-4.3,5.5-7.4,7.3-3.1,1.8-6.7,2.7-10.6,2.7ZM225.4,70.5c2,0,3.7-.5,5.2-1.4,1.5-.9,2.7-2.1,3.5-3.7.8-1.5,1.2-3.3,1.2-5.4s-.4-3.8-1.3-5.4c-.9-1.5-2.1-2.8-3.5-3.6-1.5-.9-3.2-1.3-5.2-1.3s-3.6.4-5.1,1.3c-1.5.9-2.7,2.1-3.5,3.6-.8,1.5-1.2,3.3-1.2,5.4s.4,3.8,1.2,5.4c.8,1.5,2,2.8,3.5,3.7,1.5.9,3.2,1.4,5.1,1.4Z"/>
    <path d="M252.9,79.4v-38.6h10.5v38.6h-10.5ZM263.3,58.1l-4.1-2.8c.5-4.7,1.9-8.5,4.2-11.2,2.3-2.7,5.6-4.1,9.9-4.1s3.6.3,5.1.9c1.5.6,2.8,1.6,4,3l-6.6,7.6c-.6-.7-1.3-1.2-2.1-1.5-.8-.3-1.8-.4-2.8-.4-2.2,0-4.1.7-5.5,2.1-1.4,1.4-2.1,3.5-2.1,6.5Z"/>
    <path d="M286.1,79.4V21.6h10.5v57.8h-10.5ZM310.7,79.4l-14.9-19.9,14.8-18.7h12.2l-17.4,21.1.4-5.1,17.8,22.6h-12.8Z"/>
    <path d="M322.2,50v-9.2h30.9v9.2h-30.9ZM331.1,79.4v-42.8c0-3,.7-5.8,2-8.2,1.4-2.4,3.3-4.3,5.7-5.7,2.5-1.4,5.3-2.1,8.6-2.1s4.7.4,6.5,1.2c1.8.8,3.5,2,5,3.6l-6.7,6.6c-.5-.6-1.2-1-1.9-1.4-.7-.3-1.6-.5-2.7-.5-1.9,0-3.4.5-4.4,1.6s-1.6,2.5-1.6,4.4v43h-10.6Z"/>
    <path d="M359.6,79.4V21.6h10.5v57.8h-10.5Z"/>
    <path d="M397.4,80.3c-3.9,0-7.4-.9-10.5-2.7-3.1-1.8-5.6-4.2-7.4-7.3-1.8-3.1-2.7-6.5-2.7-10.4s.9-7.2,2.7-10.2c1.8-3,4.3-5.4,7.4-7.2,3.1-1.8,6.6-2.7,10.5-2.7s7.5.9,10.6,2.6c3.1,1.8,5.6,4.2,7.4,7.2,1.8,3,2.8,6.5,2.8,10.2s-.9,7.2-2.7,10.3c-1.8,3.1-4.3,5.5-7.4,7.3-3.1,1.8-6.7,2.7-10.6,2.7ZM397.4,70.5c2,0,3.7-.5,5.2-1.4,1.5-.9,2.7-2.1,3.5-3.7.8-1.5,1.2-3.3,1.2-5.4s-.4-3.8-1.3-5.4c-.9-1.5-2.1-2.8-3.5-3.6-1.5-.9-3.2-1.3-5.2-1.3s-3.6.4-5.1,1.3c-1.5.9-2.7,2.1-3.5,3.6-.8,1.5-1.2,3.3-1.2,5.4s.4,3.8,1.2,5.4c.8,1.5,2,2.8,3.5,3.7,1.5.9,3.2,1.4,5.1,1.4Z"/>
    <path d="M434.2,79.4l-14.4-38.6h10.6l9.4,28.1h-3.1c0,0,9.7-28.1,9.7-28.1h7.5l9.8,28.2h-3.1c0,0,9.4-28.2,9.4-28.2h10.6l-14.4,38.6h-7.6l-9.7-26.6h3l-9.8,26.6h-7.6Z"/>
    <path d="M497.9,80.3c-2.2,0-4.4-.3-6.5-.8-2.1-.6-4-1.4-5.8-2.5-1.8-1.1-3.3-2.4-4.6-3.9l6.3-6.3c1.3,1.5,2.8,2.7,4.6,3.4,1.8.7,3.7,1.1,5.8,1.1s3-.3,3.9-.8c.9-.5,1.4-1.2,1.4-2.1s-.5-1.9-1.4-2.4c-1-.6-2.2-1.1-3.6-1.5-1.5-.4-3-.9-4.7-1.4-1.7-.5-3.2-1.1-4.7-2-1.5-.8-2.7-2-3.6-3.5-1-1.5-1.4-3.4-1.4-5.8s.6-4.6,1.8-6.4c1.2-1.8,3-3.3,5.2-4.2,2.2-1,4.9-1.5,7.9-1.5s6.1.5,8.7,1.6c2.6,1.1,4.7,2.8,6.4,5l-6.3,6.4c-1.2-1.4-2.5-2.4-4-3.1-1.5-.7-3-1-4.7-1s-2.8.2-3.6.7-1.2,1.1-1.2,2,.5,1.7,1.4,2.2c.9.5,2.1,1,3.6,1.4s3.1.9,4.7,1.4c1.6.5,3.2,1.2,4.6,2.1,1.5.9,2.7,2.1,3.6,3.6.9,1.5,1.4,3.4,1.4,5.8,0,3.8-1.4,6.8-4.1,9-2.7,2.2-6.4,3.3-11,3.3Z"/>
    <path d="M553,80.3c-4.5,0-8.3-.8-11.6-2.3-3.2-1.5-6.1-3.9-8.8-7l7.2-7.2c1.7,2.2,3.6,3.9,5.8,5.1s4.8,1.8,8,1.8,5.1-.6,6.7-1.7c1.7-1.1,2.5-2.7,2.5-4.6s-.5-3.1-1.4-4.2c-1-1.1-2.2-2-3.8-2.7s-3.3-1.4-5.2-2c-1.9-.6-3.8-1.3-5.6-2.1-1.9-.8-3.6-1.8-5.2-3-1.6-1.2-2.9-2.8-3.8-4.6-.9-1.9-1.4-4.3-1.4-7.2s.8-6.3,2.5-8.7c1.7-2.4,3.9-4.2,6.8-5.5,2.9-1.3,6.1-1.9,9.8-1.9s7.3.7,10.4,2.2,5.6,3.3,7.6,5.6l-7.2,7.2c-1.7-1.8-3.3-3.1-5.1-4-1.7-.9-3.7-1.3-5.9-1.3s-4.5.5-5.9,1.5c-1.4,1-2.2,2.4-2.2,4.1s.5,2.8,1.4,3.7c1,.9,2.2,1.8,3.8,2.5,1.6.7,3.3,1.4,5.2,2s3.8,1.4,5.7,2.2c1.9.8,3.6,1.9,5.2,3.1,1.6,1.3,2.8,2.9,3.8,4.9s1.4,4.5,1.4,7.4c0,5.2-1.8,9.3-5.5,12.4-3.7,3-8.7,4.5-15.2,4.5Z"/>
    <path d="M596.9,80.2c-3.5,0-6.7-.9-9.5-2.6s-5-4.2-6.6-7.2c-1.6-3-2.4-6.5-2.4-10.2s.8-7.3,2.4-10.3c1.6-3,3.8-5.4,6.6-7.2,2.8-1.8,6-2.6,9.6-2.6s5.2.6,7.4,1.7c2.2,1.1,3.9,2.7,5.3,4.6,1.3,2,2.1,4.2,2.2,6.8v14c-.1,2.5-.8,4.8-2.1,6.8-1.3,2-3.1,3.6-5.3,4.7-2.2,1.1-4.7,1.7-7.5,1.7ZM598.9,70.5c2.9,0,5.3-1,7.1-3,1.8-2,2.7-4.5,2.7-7.4s-.4-3.8-1.3-5.4c-.9-1.6-2-2.8-3.4-3.7-1.4-.9-3.1-1.3-5.1-1.3s-3.6.5-5.1,1.4c-1.5.9-2.6,2.1-3.4,3.7-.8,1.5-1.2,3.3-1.2,5.4s.4,3.9,1.2,5.4c.8,1.5,2,2.8,3.5,3.7,1.5.9,3.2,1.4,5,1.4ZM608.1,79.4v-10.4l1.8-9.4-1.8-9.4v-9.4h10.6v38.6h-10.6Z"/>
    <path d="M627.8,79.4v-38.6h10.5v38.6h-10.5ZM652.9,79.4v-22.8c0-2.2-.7-4-2.1-5.2-1.4-1.3-3.1-1.9-5.2-1.9s-2.6.3-3.7.8c-1.1.6-2,1.4-2.6,2.4-.7,1.1-1,2.4-1,3.9l-4.1-2.1c0-3,.7-5.6,2-7.8,1.3-2.2,3.1-3.9,5.3-5.1,2.2-1.2,4.8-1.8,7.6-1.8s5.1.6,7.3,1.8c2.2,1.2,3.9,2.9,5.2,5,1.3,2.2,1.9,4.7,1.9,7.7v24.9h-10.6ZM678.1,79.4v-22.8c0-2.2-.7-4-2.1-5.2-1.4-1.3-3.1-1.9-5.1-1.9s-2.7.3-3.8.8c-1.1.6-2,1.4-2.6,2.4-.7,1.1-1,2.4-1,3.9l-6-1.5c.2-3.1,1-5.8,2.4-8.1,1.5-2.2,3.4-4,5.7-5.2,2.3-1.3,5-1.9,7.8-1.9s5.5.6,7.8,1.8c2.3,1.2,4.1,2.9,5.5,5.2,1.4,2.2,2,4.9,2,8.1v24.4h-10.6Z"/>
    <path d="M697.2,95.7v-54.9h10.5v10.2l-1.8,9.4,1.7,9.4v25.9h-10.4ZM718.6,80.2c-2.8,0-5.3-.6-7.5-1.7-2.2-1.1-4-2.7-5.4-4.7-1.4-2-2.1-4.3-2.2-6.8v-13.8c.1-2.6.8-4.8,2.2-6.8,1.4-2,3.2-3.6,5.4-4.8,2.2-1.2,4.7-1.8,7.5-1.8s6.8.9,9.6,2.6c2.9,1.8,5.1,4.2,6.7,7.2,1.6,3,2.4,6.5,2.4,10.3s-.8,7.2-2.4,10.2c-1.6,3-3.9,5.4-6.7,7.2-2.8,1.8-6,2.6-9.6,2.6ZM716.9,70.5c1.9,0,3.6-.5,5-1.4,1.4-.9,2.6-2.1,3.4-3.7.8-1.6,1.2-3.4,1.2-5.4s-.4-3.8-1.2-5.4c-.8-1.5-2-2.8-3.4-3.7-1.4-.9-3.1-1.4-5.1-1.4s-3.5.5-5,1.4c-1.5.9-2.6,2.1-3.4,3.7-.8,1.5-1.2,3.3-1.2,5.4s.4,3.8,1.2,5.4c.8,1.6,1.9,2.8,3.4,3.7,1.5.9,3.2,1.4,5.2,1.4Z"/>
    <path d="M744.1,79.4V21.6h10.5v57.8h-10.5Z"/>
    <path d="M782.4,80.3c-4.1,0-7.7-.9-10.8-2.6-3.2-1.8-5.7-4.2-7.5-7.2-1.8-3-2.7-6.5-2.7-10.4s.9-7.3,2.7-10.3c1.8-3,4.2-5.4,7.3-7.2,3.1-1.8,6.6-2.6,10.4-2.6s6.9.8,9.8,2.5c2.9,1.7,5.1,3.9,6.7,6.9,1.6,2.9,2.4,6.3,2.4,10s0,1.4,0,2.1c0,.7-.2,1.5-.4,2.4h-32.6c0,0,0-7.8,0-7.8h27.7c0,0-4.3,3.2-4.3,3.2,0-2.3-.5-4.2-1.2-5.8-.7-1.5-1.8-2.7-3.1-3.5-1.3-.8-3-1.2-5-1.2s-3.9.5-5.4,1.4c-1.5.9-2.7,2.2-3.6,3.9-.8,1.7-1.2,3.7-1.2,6s.4,4.4,1.3,6.1c.9,1.7,2.1,3.1,3.8,4,1.7.9,3.6,1.4,5.8,1.4s3.8-.3,5.4-1c1.6-.6,3-1.7,4.2-3l6.2,6.2c-2,2.2-4.3,3.9-7,5-2.7,1.1-5.6,1.7-8.7,1.7Z"/>
    <path d="M817.4,79.4l22.7-56.2h9l22.5,56.2h-11.6l-17.4-46.1h4l-17.6,46.1h-11.5ZM829.5,68.9v-9.1h30.2v9.1h-30.2Z"/>
    <path d="M877.7,95.7v-54.9h10.5v10.2l-1.8,9.4,1.7,9.4v25.9h-10.4ZM899.2,80.2c-2.8,0-5.3-.6-7.5-1.7-2.2-1.1-4-2.7-5.4-4.7-1.4-2-2.1-4.3-2.2-6.8v-13.8c.1-2.6.8-4.8,2.2-6.8,1.4-2,3.2-3.6,5.4-4.8,2.2-1.2,4.7-1.8,7.5-1.8s6.8.9,9.6,2.6c2.9,1.8,5.1,4.2,6.7,7.2,1.6,3,2.4,6.5,2.4,10.3s-.8,7.2-2.4,10.2c-1.6,3-3.9,5.4-6.7,7.2-2.8,1.8-6,2.6-9.6,2.6ZM897.4,70.5c1.9,0,3.6-.5,5-1.4,1.4-.9,2.6-2.1,3.4-3.7.8-1.6,1.2-3.4,1.2-5.4s-.4-3.8-1.2-5.4c-.8-1.5-2-2.8-3.4-3.7-1.4-.9-3.1-1.4-5.1-1.4s-3.5.5-5,1.4c-1.5.9-2.6,2.1-3.4,3.7-.8,1.5-1.2,3.3-1.2,5.4s.4,3.8,1.2,5.4c.8,1.6,1.9,2.8,3.4,3.7,1.5.9,3.2,1.4,5.2,1.4Z"/>
    <path d="M924.7,95.7v-54.9h10.5v10.2l-1.8,9.4,1.7,9.4v25.9h-10.4ZM946.1,80.2c-2.8,0-5.3-.6-7.5-1.7-2.2-1.1-4-2.7-5.4-4.7-1.4-2-2.1-4.3-2.2-6.8v-13.8c.1-2.6.8-4.8,2.2-6.8,1.4-2,3.2-3.6,5.4-4.8,2.2-1.2,4.7-1.8,7.5-1.8s6.8.9,9.6,2.6c2.9,1.8,5.1,4.2,6.7,7.2,1.6,3,2.4,6.5,2.4,10.3s-.8,7.2-2.4,10.2c-1.6,3-3.9,5.4-6.7,7.2-2.8,1.8-6,2.6-9.6,2.6ZM944.4,70.5c1.9,0,3.6-.5,5-1.4,1.4-.9,2.6-2.1,3.4-3.7.8-1.6,1.2-3.4,1.2-5.4s-.4-3.8-1.2-5.4c-.8-1.5-2-2.8-3.4-3.7-1.4-.9-3.1-1.4-5.1-1.4s-3.5.5-5,1.4c-1.5.9-2.6,2.1-3.4,3.7-.8,1.5-1.2,3.3-1.2,5.4s.4,3.8,1.2,5.4c.8,1.6,1.9,2.8,3.4,3.7,1.5.9,3.2,1.4,5.2,1.4Z"/>
  </g>
</svg>