<svg width="44" height="44" viewBox="0 0 44 44" fill="none" xmlns="http://www.w3.org/2000/svg">
<rect width="44" height="44" rx="22" fill="#8154FF" fill-opacity="0.1"/>
<path opacity="0.4" d="M26.3405 11.9998H17.6705C14.2805 11.9998 12.0005 14.3798 12.0005 17.9198V26.0898C12.0005 29.6198 14.2805 31.9998 17.6705 31.9998H26.3405C29.7305 31.9998 32.0005 29.6198 32.0005 26.0898V17.9198C32.0005 14.3798 29.7305 11.9998 26.3405 11.9998Z" fill="#501799"/>
<path d="M20.8134 25.2478C20.5894 25.2478 20.3654 25.1628 20.1944 24.9918L17.8214 22.6188C17.4794 22.2768 17.4794 21.7228 17.8214 21.3818C18.1634 21.0398 18.7164 21.0388 19.0584 21.3808L20.8134 23.1358L24.9414 19.0078C25.2834 18.6658 25.8364 18.6658 26.1784 19.0078C26.5204 19.3498 26.5204 19.9038 26.1784 20.2458L21.4324 24.9918C21.2614 25.1628 21.0374 25.2478 20.8134 25.2478Z" fill="#501799"/>
</svg>
