<svg width="44" height="44" viewBox="0 0 44 44" fill="none" xmlns="http://www.w3.org/2000/svg">
<rect width="44" height="44" rx="22" fill="#8154FF" fill-opacity="0.1"/>
<path opacity="0.4" d="M32 25.94C32 28.73 29.76 30.99 26.97 31H26.96H17.05C14.27 31 12 28.75 12 25.96V25.95C12 25.95 12.006 21.524 12.014 19.298C12.015 18.88 12.495 18.646 12.822 18.906C15.198 20.791 19.447 24.228 19.5 24.273C20.21 24.842 21.11 25.163 22.03 25.163C22.95 25.163 23.85 24.842 24.56 24.262C24.613 24.227 28.767 20.893 31.179 18.977C31.507 18.716 31.989 18.95 31.99 19.367C32 21.576 32 25.94 32 25.94Z" fill="#501799"/>
<path d="M31.4759 15.6735C30.6099 14.0415 28.9059 12.9995 27.0299 12.9995H17.0499C15.1739 12.9995 13.4699 14.0415 12.6039 15.6735C12.4099 16.0385 12.5019 16.4935 12.8249 16.7515L20.2499 22.6905C20.7699 23.1105 21.3999 23.3195 22.0299 23.3195C22.0339 23.3195 22.0369 23.3195 22.0399 23.3195C22.0429 23.3195 22.0469 23.3195 22.0499 23.3195C22.6799 23.3195 23.3099 23.1105 23.8299 22.6905L31.2549 16.7515C31.5779 16.4935 31.6699 16.0385 31.4759 15.6735Z" fill="#501799"/>
</svg>
