<svg width="44" height="44" viewBox="0 0 44 44" fill="none" xmlns="http://www.w3.org/2000/svg">
<rect width="44" height="44" rx="22" fill="#8154FF" fill-opacity="0.1"/>
<path opacity="0.4" d="M21.9912 28.6217L15.4994 31.8643C15.0092 32.1304 14.3977 31.9527 14.1235 31.4645C14.0434 31.311 14.0011 31.1404 14 30.967V23.709C14 24.4286 14.4057 24.8728 15.473 25.3702L21.9912 28.6217Z" fill="#501799"/>
<path fill-rule="evenodd" clip-rule="evenodd" d="M18.8953 12H25.0695C27.7773 12 29.9735 13.0661 30 15.7934V30.9668C29.9989 31.1374 29.9565 31.3051 29.8765 31.4554C29.7479 31.7007 29.5259 31.8827 29.2615 31.9598C28.997 32.0368 28.7128 32.0023 28.4741 31.8641L21.9912 28.6215L15.473 25.3701C14.4057 24.8726 14 24.4284 14 23.7088V15.7934C14 13.0661 16.1963 12 18.8953 12ZM18.2249 19.6223H25.7486C26.1822 19.6223 26.5336 19.2683 26.5336 18.8316C26.5336 18.3949 26.1822 18.041 25.7486 18.041H18.2249C17.7914 18.041 17.4399 18.3949 17.4399 18.8316C17.4399 19.2683 17.7914 19.6223 18.2249 19.6223Z" fill="#501799"/>
</svg>
