<svg width="44" height="44" viewBox="0 0 44 44" fill="none" xmlns="http://www.w3.org/2000/svg">
<rect width="44" height="44" rx="22" fill="#8154FF" fill-opacity="0.1"/>
<path opacity="0.4" d="M22.0865 32C21.9627 32 21.8388 31.9716 21.7271 31.9137L18.126 30.0496C17.1042 29.5201 16.3048 28.9259 15.6806 28.2336C14.3145 26.7195 13.5544 24.776 13.5423 22.7599L13.5 16.1243C13.495 15.3584 13.9893 14.671 14.7283 14.4122L21.3405 12.1068C21.7331 11.9666 22.1711 11.9646 22.5707 12.0999L29.2081 14.3268C29.9511 14.5749 30.4535 15.2574 30.4575 16.0223L30.4998 22.6628C30.5129 24.676 29.779 26.6274 28.434 28.1581C27.8168 28.8602 27.0245 29.4632 26.0128 30.0025L22.4439 31.9088C22.3331 31.9686 22.2103 31.999 22.0865 32Z" fill="#501799"/>
<path d="M21.3194 24.3209C21.1261 24.3219 20.9328 24.2523 20.7838 24.1091L18.867 22.2656C18.571 21.9793 18.568 21.5145 18.8609 21.2262C19.1539 20.9369 19.6321 20.934 19.9291 21.2193L21.3083 22.5451L24.6758 19.2248C24.9698 18.9355 25.448 18.9326 25.744 19.2179C26.041 19.5043 26.044 19.97 25.751 20.2574L21.8519 24.1022C21.7049 24.2474 21.5127 24.3199 21.3194 24.3209Z" fill="#501799"/>
</svg>
